<svg width="960" height="420" viewBox="0 0 960 420" fill="none" xmlns="http://www.w3.org/2000/svg">
  <defs>
    <linearGradient id="d" x1="10" y1="10" x2="940" y2="390" gradientUnits="userSpaceOnUse">
      <stop stop-color="#E2EEFF"/>
      <stop offset="1" stop-color="#E8FFF7"/>
    </linearGradient>
  </defs>
  <rect width="960" height="420" rx="26" fill="url(#d)"/>
  <rect x="70" y="76" width="360" height="268" rx="20" fill="white" stroke="#CFE1FF" stroke-width="2"/>
  <rect x="462" y="76" width="430" height="120" rx="20" fill="white" stroke="#CFE1FF" stroke-width="2"/>
  <rect x="462" y="224" width="430" height="120" rx="20" fill="white" stroke="#CFE1FF" stroke-width="2"/>
  <rect x="102" y="108" width="150" height="16" rx="8" fill="#D9E9FF"/>
  <rect x="102" y="138" width="280" height="10" rx="5" fill="#E7F2FF"/>
  <rect x="102" y="158" width="246" height="10" rx="5" fill="#E7F2FF"/>
  <rect x="102" y="192" width="230" height="44" rx="12" fill="#1F6FFF"/>
  <rect x="494" y="108" width="200" height="14" rx="7" fill="#DAEAFF"/>
  <rect x="494" y="134" width="350" height="10" rx="5" fill="#E7F2FF"/>
  <rect x="494" y="254" width="200" height="14" rx="7" fill="#DAEAFF"/>
  <rect x="494" y="280" width="350" height="10" rx="5" fill="#E7F2FF"/>
  <circle cx="370" cy="274" r="40" fill="#22C7AA"/>
</svg>
