<svg width="960" height="620" viewBox="0 0 960 620" fill="none" xmlns="http://www.w3.org/2000/svg">
  <defs>
    <linearGradient id="g1" x1="70" y1="30" x2="860" y2="560" gradientUnits="userSpaceOnUse">
      <stop stop-color="#DCEAFF"/>
      <stop offset="1" stop-color="#E8FFF8"/>
    </linearGradient>
    <linearGradient id="g2" x1="140" y1="150" x2="740" y2="420" gradientUnits="userSpaceOnUse">
      <stop stop-color="#1F6FFF"/>
      <stop offset="1" stop-color="#22C7AA"/>
    </linearGradient>
  </defs>
  <rect x="0" y="0" width="960" height="620" rx="28" fill="url(#g1)"/>
  <rect x="70" y="80" width="820" height="460" rx="24" fill="white" stroke="#CFE1FF" stroke-width="2"/>
  <rect x="104" y="120" width="300" height="376" rx="18" fill="#F3F8FF" stroke="#D7E6FF"/>
  <rect x="430" y="120" width="426" height="174" rx="18" fill="#F7FCFF" stroke="#D7E6FF"/>
  <rect x="430" y="320" width="204" height="176" rx="18" fill="#F7FCFF" stroke="#D7E6FF"/>
  <rect x="652" y="320" width="204" height="176" rx="18" fill="#F7FCFF" stroke="#D7E6FF"/>
  <rect x="128" y="152" width="110" height="20" rx="10" fill="#D9E9FF"/>
  <rect x="128" y="188" width="246" height="14" rx="7" fill="#DFECFF"/>
  <rect x="128" y="214" width="220" height="14" rx="7" fill="#DFECFF"/>
  <rect x="128" y="250" width="246" height="160" rx="16" fill="url(#g2)" opacity="0.95"/>
  <rect x="452" y="146" width="180" height="20" rx="10" fill="#DBEAFF"/>
  <rect x="452" y="176" width="388" height="12" rx="6" fill="#E6F0FF"/>
  <rect x="452" y="198" width="318" height="12" rx="6" fill="#E6F0FF"/>
  <circle cx="514" cy="372" r="38" fill="#E2EEFF"/>
  <rect x="566" y="356" width="48" height="12" rx="6" fill="#D6E7FF"/>
  <rect x="566" y="378" width="40" height="12" rx="6" fill="#D6E7FF"/>
  <circle cx="736" cy="372" r="38" fill="#E5FFF8"/>
  <rect x="788" y="356" width="48" height="12" rx="6" fill="#D9FFF1"/>
  <rect x="788" y="378" width="40" height="12" rx="6" fill="#D9FFF1"/>
</svg>
