<svg width="960" height="420" viewBox="0 0 960 420" fill="none" xmlns="http://www.w3.org/2000/svg">
  <defs>
    <linearGradient id="c" x1="20" y1="20" x2="920" y2="380" gradientUnits="userSpaceOnUse">
      <stop stop-color="#E1EEFF"/>
      <stop offset="1" stop-color="#E8FFF9"/>
    </linearGradient>
  </defs>
  <rect width="960" height="420" rx="26" fill="url(#c)"/>
  <rect x="48" y="70" width="210" height="280" rx="18" fill="white" stroke="#CFE1FF" stroke-width="2"/>
  <rect x="278" y="70" width="210" height="280" rx="18" fill="white" stroke="#CFE1FF" stroke-width="2"/>
  <rect x="508" y="70" width="210" height="280" rx="18" fill="white" stroke="#CFE1FF" stroke-width="2"/>
  <rect x="738" y="70" width="174" height="280" rx="18" fill="white" stroke="#CFE1FF" stroke-width="2"/>
  <rect x="70" y="98" width="100" height="18" rx="9" fill="#D9E9FF"/>
  <rect x="70" y="130" width="160" height="10" rx="5" fill="#E7F2FF"/>
  <rect x="300" y="98" width="100" height="18" rx="9" fill="#D9E9FF"/>
  <rect x="300" y="130" width="160" height="10" rx="5" fill="#E7F2FF"/>
  <rect x="530" y="98" width="100" height="18" rx="9" fill="#D9E9FF"/>
  <rect x="530" y="130" width="160" height="10" rx="5" fill="#E7F2FF"/>
  <rect x="760" y="98" width="100" height="18" rx="9" fill="#D9E9FF"/>
  <rect x="760" y="130" width="130" height="10" rx="5" fill="#E7F2FF"/>
  <circle cx="153" cy="220" r="52" fill="#1F6FFF" opacity="0.9"/>
  <circle cx="383" cy="220" r="52" fill="#22C7AA" opacity="0.9"/>
  <circle cx="613" cy="220" r="52" fill="#6FA8FF" opacity="0.9"/>
  <circle cx="825" cy="220" r="52" fill="#7FE0CC" opacity="0.9"/>
</svg>
